<svg width="383" height="165" viewBox="0 0 383 165" fill="none" xmlns="http://www.w3.org/2000/svg">
<path d="M14.751 140.219C15.983 140.439 17.028 141.088 17.886 142.166C18.744 143.244 19.173 144.465 19.173 145.829C19.173 146.995 18.865 148.051 18.249 148.997C17.655 149.921 16.786 150.658 15.642 151.208C14.498 151.736 13.167 152 11.649 152H2.475V129.065H11.22C12.782 129.065 14.124 129.329 15.246 129.857C16.368 130.385 17.215 131.1 17.787 132.002C18.359 132.882 18.645 133.872 18.645 134.972C18.645 136.292 18.293 137.392 17.589 138.272C16.885 139.152 15.939 139.801 14.751 140.219ZM6.237 138.701H10.89C12.122 138.701 13.079 138.426 13.761 137.876C14.465 137.304 14.817 136.49 14.817 135.434C14.817 134.4 14.465 133.597 13.761 133.025C13.079 132.431 12.122 132.134 10.89 132.134H6.237V138.701ZM11.319 148.931C12.595 148.931 13.596 148.623 14.322 148.007C15.048 147.391 15.411 146.533 15.411 145.433C15.411 144.311 15.026 143.42 14.256 142.76C13.486 142.1 12.463 141.77 11.187 141.77H6.237V148.931H11.319ZM31.1481 152.297C29.4321 152.297 27.8811 151.912 26.4951 151.142C25.1091 150.35 24.0201 149.25 23.2281 147.842C22.4361 146.412 22.0401 144.762 22.0401 142.892C22.0401 141.044 22.4471 139.405 23.2611 137.975C24.0751 136.545 25.1861 135.445 26.5941 134.675C28.0021 133.905 29.5751 133.52 31.3131 133.52C33.0511 133.52 34.6241 133.905 36.0321 134.675C37.4401 135.445 38.5511 136.545 39.3651 137.975C40.1791 139.405 40.5861 141.044 40.5861 142.892C40.5861 144.74 40.1681 146.379 39.3321 147.809C38.4961 149.239 37.3521 150.35 35.9001 151.142C34.4701 151.912 32.8861 152.297 31.1481 152.297ZM31.1481 149.03C32.1161 149.03 33.0181 148.799 33.8541 148.337C34.7121 147.875 35.4051 147.182 35.9331 146.258C36.4611 145.334 36.7251 144.212 36.7251 142.892C36.7251 141.572 36.4721 140.461 35.9661 139.559C35.4601 138.635 34.7891 137.942 33.9531 137.48C33.1171 137.018 32.2151 136.787 31.2471 136.787C30.2791 136.787 29.3771 137.018 28.5411 137.48C27.7271 137.942 27.0781 138.635 26.5941 139.559C26.1101 140.461 25.8681 141.572 25.8681 142.892C25.8681 144.85 26.3631 146.368 27.3531 147.446C28.3651 148.502 29.6301 149.03 31.1481 149.03ZM48.0671 136.457C48.6171 135.533 49.3431 134.818 50.2451 134.312C51.1691 133.784 52.2581 133.52 53.5121 133.52V137.414H52.5551C51.0811 137.414 49.9591 137.788 49.1891 138.536C48.4411 139.284 48.0671 140.582 48.0671 142.43V152H44.3051V133.817H48.0671V136.457ZM64.6261 149.129C66.8041 149.129 68.2451 148.172 68.9491 146.258H73.0081C72.5241 147.93 71.6551 149.305 70.4011 150.383C69.1691 151.439 67.6181 152.055 65.7481 152.231V153.584C67.0241 153.584 68.0581 153.881 68.8501 154.475C69.6421 155.091 70.0381 155.949 70.0381 157.049C70.0381 158.149 69.6421 159.018 68.8501 159.656C68.0581 160.316 67.0571 160.646 65.8471 160.646H61.4911V158.27H65.0881C65.7041 158.27 66.1661 158.182 66.4741 158.006C66.7821 157.83 66.9361 157.511 66.9361 157.049C66.9361 156.587 66.7821 156.268 66.4741 156.092C66.1661 155.916 65.7041 155.828 65.0881 155.828H63.2731V152.198C61.7771 152.022 60.4571 151.527 59.3131 150.713C58.1691 149.877 57.2781 148.799 56.6401 147.479C56.0241 146.137 55.7161 144.608 55.7161 142.892C55.7161 141.022 56.0901 139.383 56.8381 137.975C57.6081 136.545 58.6641 135.445 60.0061 134.675C61.3481 133.905 62.8881 133.52 64.6261 133.52C66.8261 133.52 68.6411 134.048 70.0711 135.104C71.5231 136.138 72.5021 137.623 73.0081 139.559H68.9491C68.6191 138.657 68.0911 137.953 67.3651 137.447C66.6391 136.941 65.7261 136.688 64.6261 136.688C63.0861 136.688 61.8541 137.238 60.9301 138.338C60.0281 139.416 59.5771 140.934 59.5771 142.892C59.5771 144.85 60.0281 146.379 60.9301 147.479C61.8541 148.579 63.0861 149.129 64.6261 149.129ZM102.324 129.065L94.7345 143.684V152H90.9725V143.684L83.3495 129.065H87.5405L92.8535 140.318L98.1665 129.065H102.324ZM113.197 152.297C111.481 152.297 109.93 151.912 108.544 151.142C107.158 150.35 106.069 149.25 105.277 147.842C104.485 146.412 104.089 144.762 104.089 142.892C104.089 141.044 104.496 139.405 105.31 137.975C106.124 136.545 107.235 135.445 108.643 134.675C110.051 133.905 111.624 133.52 113.362 133.52C115.1 133.52 116.673 133.905 118.081 134.675C119.489 135.445 120.6 136.545 121.414 137.975C122.228 139.405 122.635 141.044 122.635 142.892C122.635 144.74 122.217 146.379 121.381 147.809C120.545 149.239 119.401 150.35 117.949 151.142C116.519 151.912 114.935 152.297 113.197 152.297ZM113.197 149.03C114.165 149.03 115.067 148.799 115.903 148.337C116.761 147.875 117.454 147.182 117.982 146.258C118.51 145.334 118.774 144.212 118.774 142.892C118.774 141.572 118.521 140.461 118.015 139.559C117.509 138.635 116.838 137.942 116.002 137.48C115.166 137.018 114.264 136.787 113.296 136.787C112.328 136.787 111.426 137.018 110.59 137.48C109.776 137.942 109.127 138.635 108.643 139.559C108.159 140.461 107.917 141.572 107.917 142.892C107.917 144.85 108.412 146.368 109.402 147.446C110.414 148.502 111.679 149.03 113.197 149.03ZM110.524 131.243C109.974 131.243 109.501 131.056 109.105 130.682C108.731 130.286 108.544 129.813 108.544 129.263C108.544 128.713 108.731 128.251 109.105 127.877C109.501 127.481 109.974 127.283 110.524 127.283C111.074 127.283 111.536 127.481 111.91 127.877C112.306 128.251 112.504 128.713 112.504 129.263C112.504 129.813 112.306 130.286 111.91 130.682C111.536 131.056 111.074 131.243 110.524 131.243ZM116.2 131.243C115.65 131.243 115.177 131.056 114.781 130.682C114.407 130.286 114.22 129.813 114.22 129.263C114.22 128.713 114.407 128.251 114.781 127.877C115.177 127.481 115.65 127.283 116.2 127.283C116.75 127.283 117.212 127.481 117.586 127.877C117.982 128.251 118.18 128.713 118.18 129.263C118.18 129.813 117.982 130.286 117.586 130.682C117.212 131.056 116.75 131.243 116.2 131.243ZM135.528 133.52C136.958 133.52 138.234 133.817 139.356 134.411C140.5 135.005 141.391 135.885 142.029 137.051C142.667 138.217 142.986 139.625 142.986 141.275V152H139.257V141.836C139.257 140.208 138.85 138.965 138.036 138.107C137.222 137.227 136.111 136.787 134.703 136.787C133.295 136.787 132.173 137.227 131.337 138.107C130.523 138.965 130.116 140.208 130.116 141.836V152H126.354V133.817H130.116V135.896C130.732 135.148 131.513 134.565 132.459 134.147C133.427 133.729 134.45 133.52 135.528 133.52ZM164.45 142.463C164.45 143.145 164.406 143.761 164.318 144.311H150.425C150.535 145.763 151.074 146.929 152.042 147.809C153.01 148.689 154.198 149.129 155.606 149.129C157.63 149.129 159.06 148.282 159.896 146.588H163.955C163.405 148.26 162.404 149.635 160.952 150.713C159.522 151.769 157.74 152.297 155.606 152.297C153.868 152.297 152.306 151.912 150.92 151.142C149.556 150.35 148.478 149.25 147.686 147.842C146.916 146.412 146.531 144.762 146.531 142.892C146.531 141.022 146.905 139.383 147.653 137.975C148.423 136.545 149.49 135.445 150.854 134.675C152.24 133.905 153.824 133.52 155.606 133.52C157.322 133.52 158.851 133.894 160.193 134.642C161.535 135.39 162.58 136.446 163.328 137.81C164.076 139.152 164.45 140.703 164.45 142.463ZM160.523 141.275C160.501 139.889 160.006 138.778 159.038 137.942C158.07 137.106 156.871 136.688 155.441 136.688C154.143 136.688 153.032 137.106 152.108 137.942C151.184 138.756 150.634 139.867 150.458 141.275H160.523ZM172.541 136.886V146.951C172.541 147.633 172.695 148.128 173.003 148.436C173.333 148.722 173.883 148.865 174.653 148.865H176.963V152H173.993C172.299 152 171.001 151.604 170.099 150.812C169.197 150.02 168.746 148.733 168.746 146.951V136.886H166.601V133.817H168.746V129.296H172.541V133.817H176.963V136.886H172.541ZM182.344 131.408C181.662 131.408 181.09 131.177 180.628 130.715C180.166 130.253 179.935 129.681 179.935 128.999C179.935 128.317 180.166 127.745 180.628 127.283C181.09 126.821 181.662 126.59 182.344 126.59C183.004 126.59 183.565 126.821 184.027 127.283C184.489 127.745 184.72 128.317 184.72 128.999C184.72 129.681 184.489 130.253 184.027 130.715C183.565 131.177 183.004 131.408 182.344 131.408ZM184.192 133.817V152H180.43V133.817H184.192ZM211.142 133.52C212.572 133.52 213.848 133.817 214.97 134.411C216.114 135.005 217.005 135.885 217.643 137.051C218.303 138.217 218.633 139.625 218.633 141.275V152H214.904V141.836C214.904 140.208 214.497 138.965 213.683 138.107C212.869 137.227 211.758 136.787 210.35 136.787C208.942 136.787 207.82 137.227 206.984 138.107C206.17 138.965 205.763 140.208 205.763 141.836V152H202.034V141.836C202.034 140.208 201.627 138.965 200.813 138.107C199.999 137.227 198.888 136.787 197.48 136.787C196.072 136.787 194.95 137.227 194.114 138.107C193.3 138.965 192.893 140.208 192.893 141.836V152H189.131V133.817H192.893V135.896C193.509 135.148 194.29 134.565 195.236 134.147C196.182 133.729 197.194 133.52 198.272 133.52C199.724 133.52 201.022 133.828 202.166 134.444C203.31 135.06 204.19 135.951 204.806 137.117C205.356 136.017 206.214 135.148 207.38 134.51C208.546 133.85 209.8 133.52 211.142 133.52ZM239.55 152.231C238.01 152.231 236.624 151.967 235.392 151.439C234.16 150.889 233.192 150.119 232.488 149.129C231.784 148.139 231.432 146.984 231.432 145.664H235.458C235.546 146.654 235.931 147.468 236.613 148.106C237.317 148.744 238.296 149.063 239.55 149.063C240.848 149.063 241.86 148.755 242.586 148.139C243.312 147.501 243.675 146.687 243.675 145.697C243.675 144.927 243.444 144.3 242.982 143.816C242.542 143.332 241.981 142.958 241.299 142.694C240.639 142.43 239.715 142.144 238.527 141.836C237.031 141.44 235.81 141.044 234.864 140.648C233.94 140.23 233.148 139.592 232.488 138.734C231.828 137.876 231.498 136.732 231.498 135.302C231.498 133.982 231.828 132.827 232.488 131.837C233.148 130.847 234.072 130.088 235.26 129.56C236.448 129.032 237.823 128.768 239.385 128.768C241.607 128.768 243.422 129.329 244.83 130.451C246.26 131.551 247.052 133.069 247.206 135.005H243.048C242.982 134.169 242.586 133.454 241.86 132.86C241.134 132.266 240.177 131.969 238.989 131.969C237.911 131.969 237.031 132.244 236.349 132.794C235.667 133.344 235.326 134.136 235.326 135.17C235.326 135.874 235.535 136.457 235.953 136.919C236.393 137.359 236.943 137.711 237.603 137.975C238.263 138.239 239.165 138.525 240.309 138.833C241.827 139.251 243.059 139.669 244.005 140.087C244.973 140.505 245.787 141.154 246.447 142.034C247.129 142.892 247.47 144.047 247.47 145.499C247.47 146.665 247.151 147.765 246.513 148.799C245.897 149.833 244.984 150.669 243.774 151.307C242.586 151.923 241.178 152.231 239.55 152.231ZM253.823 131.408C253.141 131.408 252.569 131.177 252.107 130.715C251.645 130.253 251.414 129.681 251.414 128.999C251.414 128.317 251.645 127.745 252.107 127.283C252.569 126.821 253.141 126.59 253.823 126.59C254.483 126.59 255.044 126.821 255.506 127.283C255.968 127.745 256.199 128.317 256.199 128.999C256.199 129.681 255.968 130.253 255.506 130.715C255.044 131.177 254.483 131.408 253.823 131.408ZM255.671 133.817V152H251.909V133.817H255.671ZM267.21 152.297C265.78 152.297 264.493 152.044 263.349 151.538C262.227 151.01 261.336 150.306 260.676 149.426C260.016 148.524 259.664 147.523 259.62 146.423H263.514C263.58 147.193 263.943 147.842 264.603 148.37C265.285 148.876 266.132 149.129 267.144 149.129C268.2 149.129 269.014 148.931 269.586 148.535C270.18 148.117 270.477 147.589 270.477 146.951C270.477 146.269 270.147 145.763 269.487 145.433C268.849 145.103 267.826 144.74 266.418 144.344C265.054 143.97 263.943 143.607 263.085 143.255C262.227 142.903 261.479 142.364 260.841 141.638C260.225 140.912 259.917 139.955 259.917 138.767C259.917 137.799 260.203 136.919 260.775 136.127C261.347 135.313 262.161 134.675 263.217 134.213C264.295 133.751 265.527 133.52 266.913 133.52C268.981 133.52 270.642 134.048 271.896 135.104C273.172 136.138 273.854 137.557 273.942 139.361H270.18C270.114 138.547 269.784 137.898 269.19 137.414C268.596 136.93 267.793 136.688 266.781 136.688C265.791 136.688 265.032 136.875 264.504 137.249C263.976 137.623 263.712 138.118 263.712 138.734C263.712 139.218 263.888 139.625 264.24 139.955C264.592 140.285 265.021 140.549 265.527 140.747C266.033 140.923 266.781 141.154 267.771 141.44C269.091 141.792 270.169 142.155 271.005 142.529C271.863 142.881 272.6 143.409 273.216 144.113C273.832 144.817 274.151 145.752 274.173 146.918C274.173 147.952 273.887 148.876 273.315 149.69C272.743 150.504 271.929 151.142 270.873 151.604C269.839 152.066 268.618 152.297 267.21 152.297ZM282.627 136.886V146.951C282.627 147.633 282.781 148.128 283.089 148.436C283.419 148.722 283.969 148.865 284.739 148.865H287.049V152H284.079C282.385 152 281.087 151.604 280.185 150.812C279.283 150.02 278.832 148.733 278.832 146.951V136.886H276.687V133.817H278.832V129.296H282.627V133.817H287.049V136.886H282.627ZM307.181 142.463C307.181 143.145 307.137 143.761 307.049 144.311H293.156C293.266 145.763 293.805 146.929 294.773 147.809C295.741 148.689 296.929 149.129 298.337 149.129C300.361 149.129 301.791 148.282 302.627 146.588H306.686C306.136 148.26 305.135 149.635 303.683 150.713C302.253 151.769 300.471 152.297 298.337 152.297C296.599 152.297 295.037 151.912 293.651 151.142C292.287 150.35 291.209 149.25 290.417 147.842C289.647 146.412 289.262 144.762 289.262 142.892C289.262 141.022 289.636 139.383 290.384 137.975C291.154 136.545 292.221 135.445 293.585 134.675C294.971 133.905 296.555 133.52 298.337 133.52C300.053 133.52 301.582 133.894 302.924 134.642C304.266 135.39 305.311 136.446 306.059 137.81C306.807 139.152 307.181 140.703 307.181 142.463ZM303.254 141.275C303.232 139.889 302.737 138.778 301.769 137.942C300.801 137.106 299.602 136.688 298.172 136.688C296.874 136.688 295.763 137.106 294.839 137.942C293.915 138.756 293.365 139.867 293.189 141.275H303.254ZM332.894 133.52C334.324 133.52 335.6 133.817 336.722 134.411C337.866 135.005 338.757 135.885 339.395 137.051C340.055 138.217 340.385 139.625 340.385 141.275V152H336.656V141.836C336.656 140.208 336.249 138.965 335.435 138.107C334.621 137.227 333.51 136.787 332.102 136.787C330.694 136.787 329.572 137.227 328.736 138.107C327.922 138.965 327.515 140.208 327.515 141.836V152H323.786V141.836C323.786 140.208 323.379 138.965 322.565 138.107C321.751 137.227 320.64 136.787 319.232 136.787C317.824 136.787 316.702 137.227 315.866 138.107C315.052 138.965 314.645 140.208 314.645 141.836V152H310.883V133.817H314.645V135.896C315.261 135.148 316.042 134.565 316.988 134.147C317.934 133.729 318.946 133.52 320.024 133.52C321.476 133.52 322.774 133.828 323.918 134.444C325.062 135.06 325.942 135.951 326.558 137.117C327.108 136.017 327.966 135.148 329.132 134.51C330.298 133.85 331.552 133.52 332.894 133.52ZM347.086 131.408C346.404 131.408 345.832 131.177 345.37 130.715C344.908 130.253 344.677 129.681 344.677 128.999C344.677 128.317 344.908 127.745 345.37 127.283C345.832 126.821 346.404 126.59 347.086 126.59C347.746 126.59 348.307 126.821 348.769 127.283C349.231 127.745 349.462 128.317 349.462 128.999C349.462 129.681 349.231 130.253 348.769 130.715C348.307 131.177 347.746 131.408 347.086 131.408ZM348.934 133.817V152H345.172V133.817H348.934Z" fill="#57CDF3"/>
<path d="M355.71 115C352.872 112.42 350.493 110.227 348.572 108.421C346.651 106.586 345.103 105.038 343.928 103.777C342.724 102.516 341.821 101.441 341.219 100.552C340.588 99.6633 340.158 98.8893 339.929 98.23C339.7 97.542 339.585 96.8683 339.585 96.209C339.585 95.2917 339.757 94.5463 340.101 93.973C340.445 93.371 340.932 92.9267 341.563 92.64C342.165 92.3247 342.896 92.167 343.756 92.167C344.444 92.167 345.06 92.2673 345.605 92.468C346.121 92.6687 346.565 92.9553 346.938 93.328C347.311 93.672 347.597 94.0877 347.798 94.575C347.999 95.0337 348.099 95.5353 348.099 96.08C348.099 96.8253 347.999 97.499 347.798 98.101C347.569 98.6743 347.268 99.2047 346.895 99.692L351.152 103.175C351.611 102.688 352.084 102.043 352.571 101.24C353.03 100.437 353.417 99.5343 353.732 98.531C354.047 97.5277 354.205 96.5243 354.205 95.521C354.205 94.4603 353.99 93.3853 353.56 92.296C353.101 91.2067 352.413 90.2033 351.496 89.286C350.579 88.34 349.418 87.5803 348.013 87.007C346.58 86.4337 344.903 86.147 342.982 86.147C340.717 86.147 338.854 86.5197 337.392 87.265C335.93 87.9817 334.841 88.985 334.124 90.275C333.379 91.565 333.006 93.0413 333.006 94.704C333.006 95.9367 333.164 97.112 333.479 98.23C333.766 99.348 334.267 100.48 334.984 101.627C335.672 102.774 336.604 104.006 337.779 105.325C338.926 106.644 340.345 108.134 342.036 109.797L344.96 108.98H334.382L335.113 115H355.71Z" fill="#57CDF3"/>
<path d="M257.105 115.344C256.274 115.344 255.313 115.201 254.224 114.914C253.135 114.627 252.06 114.197 250.999 113.624C249.967 113.051 249.107 112.363 248.419 111.56L252.246 106.744C252.619 107.289 253.063 107.747 253.579 108.12C254.095 108.493 254.64 108.779 255.213 108.98C255.815 109.152 256.374 109.238 256.89 109.238C257.865 109.238 258.667 109.037 259.298 108.636C259.929 108.235 260.402 107.719 260.717 107.088C261.032 106.429 261.19 105.741 261.19 105.024C261.19 104.021 261.004 103.247 260.631 102.702C260.258 102.129 259.785 101.699 259.212 101.412C258.639 101.125 258.051 100.953 257.449 100.896C256.847 100.81 256.331 100.767 255.901 100.767C255.156 100.767 254.31 100.882 253.364 101.111C252.418 101.34 251.4 101.799 250.311 102.487H250.268L253.751 86.491H267.597L266.909 92.511H257.664L256.503 97.112L256.159 95.908C256.417 95.8507 256.761 95.8077 257.191 95.779C257.621 95.7217 258.094 95.693 258.61 95.693C259.47 95.693 260.416 95.8363 261.448 96.123C262.48 96.4097 263.469 96.897 264.415 97.585C265.361 98.2443 266.135 99.1617 266.737 100.337C267.339 101.484 267.64 102.946 267.64 104.723C267.64 106.042 267.425 107.332 266.995 108.593C266.594 109.854 265.949 111.001 265.06 112.033C264.2 113.036 263.111 113.839 261.792 114.441C260.473 115.043 258.911 115.344 257.105 115.344ZM298.972 114.957C297.596 114.957 296.249 114.756 294.93 114.355C293.64 113.954 292.479 113.309 291.447 112.42C290.415 111.503 289.584 110.299 288.953 108.808C288.351 107.317 288.05 105.483 288.05 103.304C288.05 102.845 288.093 102.129 288.179 101.154C288.265 100.151 288.437 99.004 288.695 97.714C288.982 96.424 289.426 95.1197 290.028 93.801C290.63 92.4537 291.418 91.2067 292.393 90.06C293.396 88.9133 294.658 87.996 296.177 87.308C297.696 86.5913 299.531 86.233 301.681 86.233C303 86.233 304.333 86.4767 305.68 86.964C307.027 87.4513 308.246 88.211 309.335 89.243C310.424 90.275 311.241 91.608 311.786 93.242C312.359 94.876 312.531 96.8397 312.302 99.133C312.187 101.312 311.815 103.361 311.184 105.282C310.582 107.174 309.736 108.851 308.647 110.313C307.558 111.775 306.21 112.922 304.605 113.753C303 114.556 301.122 114.957 298.972 114.957ZM299.746 109.023C300.864 109.023 301.796 108.679 302.541 107.991C303.315 107.303 303.931 106.429 304.39 105.368C304.849 104.279 305.178 103.118 305.379 101.885C305.608 100.652 305.723 99.4913 305.723 98.402C305.723 96.6533 305.479 95.3347 304.992 94.446C304.505 93.5573 303.874 92.9553 303.1 92.64C302.326 92.3247 301.523 92.167 300.692 92.167C299.574 92.167 298.628 92.511 297.854 93.199C297.109 93.887 296.492 94.7757 296.005 95.865C295.546 96.9257 295.202 98.0723 294.973 99.305C294.772 100.538 294.672 101.699 294.672 102.788C294.672 104.508 294.916 105.827 295.403 106.744C295.919 107.633 296.564 108.235 297.338 108.55C298.112 108.865 298.915 109.023 299.746 109.023Z" fill="#57CDF3"/>
<path d="M278.5 0L255.856 78H289.856L292.5 68L383 0H344L304 30L312 0H278.5Z" fill="url(#paint0_linear_1_11)"/>
<path d="M332.5 50L304 71L306.096 78H343.596L332.5 50Z" fill="url(#paint1_linear_1_11)"/>
<path d="M197 34L229 0H269L207.5 62L197 34Z" fill="url(#paint2_linear_1_11)"/>
<path d="M138.5 0H175.5L200 68L188.5 111.5H154L165 71L138.5 0Z" fill="url(#paint3_linear_1_11)"/>
<path d="M0 111.5L31.5 0H65L57 30L97 0H136L45.5 68L34 111.5H0Z" fill="url(#paint4_linear_1_11)"/>
<path d="M57 71L85.5 50L107.5 111.5H70L57 71Z" fill="url(#paint5_linear_1_11)"/>
<defs>
<linearGradient id="paint0_linear_1_11" x1="346.5" y1="112" x2="-18.5" y2="65" gradientUnits="userSpaceOnUse">
<stop stop-color="#57CDF3"/>
<stop offset="1" stop-color="#A81C81"/>
</linearGradient>
<linearGradient id="paint1_linear_1_11" x1="346.5" y1="112" x2="-18.5" y2="65" gradientUnits="userSpaceOnUse">
<stop stop-color="#57CDF3"/>
<stop offset="1" stop-color="#A81C81"/>
</linearGradient>
<linearGradient id="paint2_linear_1_11" x1="346.5" y1="112" x2="-18.5" y2="65" gradientUnits="userSpaceOnUse">
<stop stop-color="#57CDF3"/>
<stop offset="1" stop-color="#A81C81"/>
</linearGradient>
<linearGradient id="paint3_linear_1_11" x1="346.5" y1="112" x2="-18.5" y2="65" gradientUnits="userSpaceOnUse">
<stop stop-color="#57CDF3"/>
<stop offset="1" stop-color="#A81C81"/>
</linearGradient>
<linearGradient id="paint4_linear_1_11" x1="346.5" y1="112" x2="-18.5" y2="65" gradientUnits="userSpaceOnUse">
<stop stop-color="#57CDF3"/>
<stop offset="1" stop-color="#A81C81"/>
</linearGradient>
<linearGradient id="paint5_linear_1_11" x1="346.5" y1="112" x2="-18.5" y2="65" gradientUnits="userSpaceOnUse">
<stop stop-color="#57CDF3"/>
<stop offset="1" stop-color="#A81C81"/>
</linearGradient>
</defs>
</svg>
